<svg width="15" height="14" viewBox="0 0 15 14" fill="none" xmlns="http://www.w3.org/2000/svg">
<path fill-rule="evenodd" clip-rule="evenodd" d="M13.4825 4.51309L9.57013 4.17359L8.04238 0.576512C7.76754 -0.0782383 6.82988 -0.0782383 6.55504 0.576512L5.02729 4.18168L1.12304 4.51309C0.41171 4.56968 0.12071 5.45884 0.662293 5.92768L3.62888 8.49818L2.73971 12.3135C2.57804 13.0087 3.32979 13.5583 3.94413 13.1865L7.29871 11.1657L10.6533 13.1946C11.2676 13.5664 12.0194 13.0168 11.8577 12.3216L10.9685 8.49818L13.9351 5.92768C14.4767 5.45884 14.1938 4.56968 13.4825 4.51309ZM7.29868 2.14793V2.13658L8.68093 5.40224L12.2214 5.70941L9.53776 8.03741L10.3461 11.4971L7.2998 9.65476V2.14526L7.29868 2.14793ZM7.29868 2.14793L5.91755 5.41093L2.37705 5.7181L5.06072 8.0461L4.25239 11.5058L7.2998 9.66276V9.65476L7.29868 9.65408V2.14793Z" fill="#F2994A"/>
</svg>
