<svg width="15" height="14" viewBox="0 0 15 14" fill="none" xmlns="http://www.w3.org/2000/svg">
<path fill-rule="evenodd" clip-rule="evenodd" d="M9.57013 4.17359L13.4825 4.51309C14.1938 4.56968 14.4767 5.45884 13.9351 5.92768L10.9685 8.49818L11.8577 12.3216C12.0194 13.0168 11.2676 13.5664 10.6533 13.1946L7.29871 11.1657L3.94413 13.1865C3.32979 13.5583 2.57804 13.0087 2.73971 12.3135L3.62888 8.49818L0.662293 5.92768C0.12071 5.45884 0.41171 4.56968 1.12304 4.51309L5.02729 4.18168L6.55504 0.576512C6.82988 -0.0782383 7.76754 -0.0782383 8.04238 0.576512L9.57013 4.17359ZM7.29868 2.13658V9.65408L10.3461 11.4971L9.53776 8.03741L12.2214 5.70941L8.68093 5.40224L7.29868 2.13658Z" fill="#F2994A"/>
</svg>
